<svg xmlns="http://www.w3.org/2000/svg" viewBox="0 0 256 256" role="img" aria-labelledby="title">
  <title id="title">Read2Lead rank Đồng</title>
  <defs>
    <linearGradient id="g" x1="46" y1="22" x2="205" y2="232" gradientUnits="userSpaceOnUse">
      <stop stop-color="#f6c182"/>
      <stop offset=".45" stop-color="#b87431"/>
      <stop offset="1" stop-color="#5f3316"/>
    </linearGradient>
    <linearGradient id="shine" x1="80" y1="46" x2="168" y2="156" gradientUnits="userSpaceOnUse">
      <stop stop-color="#fff2d8" stop-opacity=".9"/>
      <stop offset="1" stop-color="#fff2d8" stop-opacity="0"/>
    </linearGradient>
  </defs>
  <path fill="#1b2436" d="M128 8 224 44v72c0 63-39 105-96 134C71 221 32 179 32 116V44Z"/>
  <path fill="url(#g)" d="M128 20 210 51v64c0 54-33 91-82 116-49-25-82-62-82-116V51Z"/>
  <path fill="#2b1609" opacity=".35" d="M128 35 194 60v52c0 43-26 73-66 94-40-21-66-51-66-94V60Z"/>
  <path fill="url(#shine)" d="M66 63 128 39l61 24v7c-42 11-81 30-119 58-3-12-4-24-4-37Z"/>
  <path fill="#fff2d8" d="m128 70 17 36 39 6-28 28 7 39-35-19-35 19 7-39-28-28 39-6Z"/>
  <path fill="#3b1d0b" opacity=".3" d="m128 89 10 22 24 4-17 16 4 24-21-11-21 11 4-24-17-16 24-4Z"/>
  <text x="128" y="218" text-anchor="middle" font-family="Arial, sans-serif" font-size="28" font-weight="800" fill="#fff2d8">ĐỒNG</text>
</svg>
